# xmcd
#
# Track frame offsets:
# 151
# 18449
# 34563
# 48996
# 65721
# 81511
# 98598
# 112190
# 131709
# 146988
# 162142
# 179193
#
# Disc length: 2577 seconds
#
#
# Revision: 0
# Processed by: cddbd v1.5.1PL0 Copyright (c) Steve Scherf et al.
# Submitted via: FreeRIP 2.51 
#
DISCID=b00a0f0c
DTITLE=Derryl Perry - Derryl Perry
DYEAR=2000
DGENRE=Country
TTITLE0=Save Our Love
TTITLE1=Shores of Kansas
TTITLE2=The Ink Hasnt Even Dried
TTITLE3=Runnin' Wide Open
TTITLE4=Button Off Your Old Blue Jeans
TTITLE5=It's a Blue Thing
TTITLE6=Lovin' you
TTITLE7=Best Memories
TTITLE8=Never Gonna Give Up My Heart
TTITLE9=It's Not Every Day She Falls In Love
TTITLE10=It's Gonna Take Some Getting Used To
TTITLE11=The Cowboy Zone
EXTD=Derryl Perry
EXTT0=
EXTT1=
EXTT2=
EXTT3=
EXTT4=
EXTT5=
EXTT6=
EXTT7=
EXTT8=
EXTT9=
EXTT10=
EXTT11=
PLAYORDER=
